<svg class="diagram-root" style="background: #f5f6f6" xmlns="http://www.w3.org/2000/svg" xmlns:xlink="http://www.w3.org/1999/xlink"><style>.diagram-root { font-family: "Helvetica Neue", sans-serif; font-size: 12px; } .t { overflow: visible; } .t-bg { y: 40; fill: #fff;   } .th { fill: #005aa0;   } .tht { fill: #fff; font-size: 14px;  } .tf { fill: #323c46; overflow: visible; } .tf.pk { fill: #005aa0; font-weight: bold; } .tf.fk { font-weight: bold; } .ty { fill: #adb1b5; font-weight: normal; text-anchor: end; } .r { fill: transparent; stroke: #c3c3c3; stroke-width: 1; } .l { stroke: 1; } .i { fill: #c2c7ce; stroke: #c2c7ce; } .i.ix { fill: #afb3b6; stroke: #000; } .fa { fill: transparent; overflow: visible; } .fa .bg.hover { fill: #f7f7f7; } .c { cy: 12; r: 4; stroke: #d2d2dc; fill: #d2d2dc; } .hr { fill: transparent; stroke: #323c46; stroke-opacity: 0.035; stroke-width: 13; } .dc { stroke: #fa5a3c; fill: #fa5a3c; } .x { stroke: white; stroke-width: 1; } .hl .th { fill: #1b9bff; } .hl .tht {  } .fhl .bg { fill: #e7f4ff; } .fhls .bg {  } .r.hl { stroke: #1b9bff; } .dim { opacity: 0.25; }</style><g class="drawing-wrapper" transform="translate(49.860000000000014, -105.46000000000004) scale(1,1)"><g class="rs"><path d="M 160.61 227.4 m -1, 0 a 1,1 0 1,0 2,0 a 1,1 0 1,0 -2,0 M 160.61 227.4 m -0.5, 0 a 0.5,0.5 0 1,0 1,0 a 0.5,0.5 0 1,0 -1,0  M160.61 227.4 L160.61 227.4 172.61 227.4 M 160.61 233.4 m -1, 0 a 1,1 0 1,0 2,0 a 1,1 0 1,0 -2,0 M 160.61 233.4 m -0.5, 0 a 0.5,0.5 0 1,0 1,0 a 0.5,0.5 0 1,0 -1,0  M160.61 233.4 L160.61 233.4 167.61 227.4 160.61 221.4 M 160.61 221.4 m -1, 0 a 1,1 0 1,0 2,0 a 1,1 0 1,0 -2,0 M 160.61 221.4 m -0.5, 0 a 0.5,0.5 0 1,0 1,0 a 0.5,0.5 0 1,0 -1,0  M172.61 227.4 Q 211.68 227.4, 250.75 209.93 T 328.89 192.46 M 340.89 192.46 m -1, 0 a 1,1 0 1,0 2,0 a 1,1 0 1,0 -2,0 M 340.89 192.46 m -0.5, 0 a 0.5,0.5 0 1,0 1,0 a 0.5,0.5 0 1,0 -1,0  M340.89 192.46 L340.89 192.46 328.89 192.46 M334.89 198.46 L334.89 198.46 334.89 186.46" id="h1139284389" class="r"></path><path d="M 160.61 252.4 m -1, 0 a 1,1 0 1,0 2,0 a 1,1 0 1,0 -2,0 M 160.61 252.4 m -0.5, 0 a 0.5,0.5 0 1,0 1,0 a 0.5,0.5 0 1,0 -1,0  M160.61 252.4 L160.61 252.4 172.61 252.4 M 160.61 258.4 m -1, 0 a 1,1 0 1,0 2,0 a 1,1 0 1,0 -2,0 M 160.61 258.4 m -0.5, 0 a 0.5,0.5 0 1,0 1,0 a 0.5,0.5 0 1,0 -1,0  M160.61 258.4 L160.61 258.4 167.61 252.4 160.61 246.4 M 160.61 246.4 m -1, 0 a 1,1 0 1,0 2,0 a 1,1 0 1,0 -2,0 M 160.61 246.4 m -0.5, 0 a 0.5,0.5 0 1,0 1,0 a 0.5,0.5 0 1,0 -1,0  M172.61 252.4 Q 210.71 252.4, 248.81 382.45 T 325 512.5 M 337 512.5 m -1, 0 a 1,1 0 1,0 2,0 a 1,1 0 1,0 -2,0 M 337 512.5 m -0.5, 0 a 0.5,0.5 0 1,0 1,0 a 0.5,0.5 0 1,0 -1,0  M337 512.5 L337 512.5 325 512.5 M331 518.5 L331 518.5 331 506.5" id="h1607168654" class="r"></path><path d="M 152.72 416.75 m -1, 0 a 1,1 0 1,0 2,0 a 1,1 0 1,0 -2,0 M 152.72 416.75 m -0.5, 0 a 0.5,0.5 0 1,0 1,0 a 0.5,0.5 0 1,0 -1,0  M152.72 416.75 L152.72 416.75 164.72 416.75 M 152.72 422.75 m -1, 0 a 1,1 0 1,0 2,0 a 1,1 0 1,0 -2,0 M 152.72 422.75 m -0.5, 0 a 0.5,0.5 0 1,0 1,0 a 0.5,0.5 0 1,0 -1,0  M152.72 422.75 L152.72 422.75 159.72 416.75 152.72 410.75 M 152.72 410.75 m -1, 0 a 1,1 0 1,0 2,0 a 1,1 0 1,0 -2,0 M 152.72 410.75 m -0.5, 0 a 0.5,0.5 0 1,0 1,0 a 0.5,0.5 0 1,0 -1,0  M164.72 416.75 Q 204.79 416.75, 244.86 464.63 T 325 512.5 M 337 512.5 m -1, 0 a 1,1 0 1,0 2,0 a 1,1 0 1,0 -2,0 M 337 512.5 m -0.5, 0 a 0.5,0.5 0 1,0 1,0 a 0.5,0.5 0 1,0 -1,0  M337 512.5 L337 512.5 325 512.5 M331 518.5 L331 518.5 331 506.5" id="h1397587031" class="r"></path><path d="M 152.72 441.75 m -1, 0 a 1,1 0 1,0 2,0 a 1,1 0 1,0 -2,0 M 152.72 441.75 m -0.5, 0 a 0.5,0.5 0 1,0 1,0 a 0.5,0.5 0 1,0 -1,0  M152.72 441.75 L152.72 441.75 164.72 441.75 M 152.72 447.75 m -1, 0 a 1,1 0 1,0 2,0 a 1,1 0 1,0 -2,0 M 152.72 447.75 m -0.5, 0 a 0.5,0.5 0 1,0 1,0 a 0.5,0.5 0 1,0 -1,0  M152.72 447.75 L152.72 447.75 159.72 441.75 152.72 435.75 M 152.72 435.75 m -1, 0 a 1,1 0 1,0 2,0 a 1,1 0 1,0 -2,0 M 152.72 435.75 m -0.5, 0 a 0.5,0.5 0 1,0 1,0 a 0.5,0.5 0 1,0 -1,0  M164.72 441.75 Q 205.77 441.75, 246.81 317.11 T 328.89 192.46 M 340.89 192.46 m -1, 0 a 1,1 0 1,0 2,0 a 1,1 0 1,0 -2,0 M 340.89 192.46 m -0.5, 0 a 0.5,0.5 0 1,0 1,0 a 0.5,0.5 0 1,0 -1,0  M340.89 192.46 L340.89 192.46 328.89 192.46 M334.89 198.46 L334.89 198.46 334.89 186.46" id="h2286254435" class="r"></path><path d="M 530.69 217.46 m -1, 0 a 1,1 0 1,0 2,0 a 1,1 0 1,0 -2,0 M 530.69 217.46 m -0.5, 0 a 0.5,0.5 0 1,0 1,0 a 0.5,0.5 0 1,0 -1,0  M530.69 217.46 L530.69 217.46 542.69 217.46 M 530.69 223.46 m -1, 0 a 1,1 0 1,0 2,0 a 1,1 0 1,0 -2,0 M 530.69 223.46 m -0.5, 0 a 0.5,0.5 0 1,0 1,0 a 0.5,0.5 0 1,0 -1,0  M530.69 223.46 L530.69 223.46 537.69 217.46 530.69 211.46 M 530.69 211.46 m -1, 0 a 1,1 0 1,0 2,0 a 1,1 0 1,0 -2,0 M 530.69 211.46 m -0.5, 0 a 0.5,0.5 0 1,0 1,0 a 0.5,0.5 0 1,0 -1,0  M542.69 217.46 Q 564.27 217.46, 585.85 311.11 T 629 404.75 M 641 404.75 m -1, 0 a 1,1 0 1,0 2,0 a 1,1 0 1,0 -2,0 M 641 404.75 m -0.5, 0 a 0.5,0.5 0 1,0 1,0 a 0.5,0.5 0 1,0 -1,0  M641 404.75 L641 404.75 629 404.75 M635 410.75 L635 410.75 635 398.75" id="h1537058300" class="r"></path><path d="M 654.5 261.75 m -1, 0 a 1,1 0 1,0 2,0 a 1,1 0 1,0 -2,0 M 654.5 261.75 m -0.5, 0 a 0.5,0.5 0 1,0 1,0 a 0.5,0.5 0 1,0 -1,0  M654.5 261.75 L654.5 261.75 642.5 261.75 M648.5 267.75 L648.5 267.75 648.5 255.75 M642.5 261.75 Q 617.55 261.75, 592.6 227.11 T 542.69 192.46 M 530.69 192.46 m -1, 0 a 1,1 0 1,0 2,0 a 1,1 0 1,0 -2,0 M 530.69 192.46 m -0.5, 0 a 0.5,0.5 0 1,0 1,0 a 0.5,0.5 0 1,0 -1,0  M530.69 192.46 L530.69 192.46 542.69 192.46 M536.69 198.46 L536.69 198.46 536.69 186.46" id="h3177548053" class="r"></path></g><g class="hrs"></g><g class="ts"><svg width="188.47" height="100" x="337" y="455.5" id="h475896179" class="t"><rect height="40" width="188.47" class="th"></rect><text x="13" y="25" class="tht">departments</text><rect height="60" width="188.47" class="t-bg" y="40"></rect><text x="13" y="61" class="tf pk">dept_no<tspan x="175.47" class="ty">VARCHAR(10)</tspan></text><path d="M7,14A2,2 0 0,1 5,12A2,2 0 0,1 7,10A2,2 0 0,1 9,12A2,2 0 0,1 7,14M12.65,10C11.83,7.67 9.61,6 7, 6A6, 6 0 0, 0 1, 12A6, 6 0 0, 0 7, 18C9.61, 18 11.83, 16.33 12.65, 14H17V18H21V14H23V10H12.65Z" class="i pk" transform="translate(76.33666870117187, 48) scale(0.65)"></path><text x="13" y="86" class="tf">dept_name<tspan x="175.47" class="ty">VARCHAR(50)</tspan></text></svg><svg width="188.47" height="125" x="-27.86" y="145.4" id="h1090417462" class="t"><rect height="40" width="188.47" class="th"></rect><text x="13" y="25" class="tht">dept_emp</text><rect height="85" width="188.47" class="t-bg" y="40"></rect><text x="13" y="61" class="tf pk">id<tspan x="175.47" class="ty">SERIAL</tspan></text><path d="M7,14A2,2 0 0,1 5,12A2,2 0 0,1 7,10A2,2 0 0,1 9,12A2,2 0 0,1 7,14M12.65,10C11.83,7.67 9.61,6 7, 6A6, 6 0 0, 0 1, 12A6, 6 0 0, 0 7, 18C9.61, 18 11.83, 16.33 12.65, 14H17V18H21V14H23V10H12.65Z" class="i pk" transform="translate(112.80333206176758, 48) scale(0.65)"></path><text x="13" y="86" class="tf fk">emp_no<tspan x="175.47" class="ty">INT</tspan></text><text x="13" y="111" class="tf pk">dept_no<tspan x="175.47" class="ty">VARCHAR(10)</tspan></text><path d="M7,14A2,2 0 0,1 5,12A2,2 0 0,1 7,10A2,2 0 0,1 9,12A2,2 0 0,1 7,14M12.65,10C11.83,7.67 9.61,6 7, 6A6, 6 0 0, 0 1, 12A6, 6 0 0, 0 7, 18C9.61, 18 11.83, 16.33 12.65, 14H17V18H21V14H23V10H12.65Z" class="i pk" transform="translate(76.33666870117187, 98) scale(0.65)"></path></svg><svg width="168.47" height="125" x="-15.75" y="334.75" id="h1676682957" class="t"><rect height="40" width="168.47" class="th"></rect><text x="13" y="25" class="tht">dept_manager</text><rect height="85" width="168.47" class="t-bg" y="40"></rect><text x="13" y="61" class="tf pk">id<tspan x="155.47" class="ty">SERIAL</tspan></text><path d="M7,14A2,2 0 0,1 5,12A2,2 0 0,1 7,10A2,2 0 0,1 9,12A2,2 0 0,1 7,14M12.65,10C11.83,7.67 9.61,6 7, 6A6, 6 0 0, 0 1, 12A6, 6 0 0, 0 7, 18C9.61, 18 11.83, 16.33 12.65, 14H17V18H21V14H23V10H12.65Z" class="i pk" transform="translate(92.80333206176758, 48) scale(0.65)"></path><text x="13" y="86" class="tf fk">dept_no<tspan x="155.47" class="ty">VARCHAR(10)</tspan></text><text x="13" y="111" class="tf fk">emp_no<tspan x="155.47" class="ty">INT</tspan></text></svg><svg width="189.8" height="225" x="340.89" y="135.46" id="h1639608377" class="t"><rect height="40" width="189.8" class="th"></rect><text x="13" y="25" class="tht">employees</text><rect height="185" width="189.8" class="t-bg" y="40"></rect><text x="13" y="61" class="tf pk">emp_no<tspan x="176.8" class="ty">INT</tspan></text><path d="M7,14A2,2 0 0,1 5,12A2,2 0 0,1 7,10A2,2 0 0,1 9,12A2,2 0 0,1 7,14M12.65,10C11.83,7.67 9.61,6 7, 6A6, 6 0 0, 0 1, 12A6, 6 0 0, 0 7, 18C9.61, 18 11.83, 16.33 12.65, 14H17V18H21V14H23V10H12.65Z" class="i pk" transform="translate(137.4666660308838, 48) scale(0.65)"></path><text x="13" y="86" class="tf fk">emp_title_id<tspan x="176.8" class="ty">VARCHAR(10)</tspan></text><text x="13" y="111" class="tf">birth_date<tspan x="176.8" class="ty">DATE</tspan></text><text x="13" y="136" class="tf">first_name<tspan x="176.8" class="ty">VARCHAR(50)</tspan></text><text x="13" y="161" class="tf">last_name<tspan x="176.8" class="ty">VARCHAR(50)</tspan></text><text x="13" y="186" class="tf">sex<tspan x="176.8" class="ty">VARCHAR(1)</tspan></text><text x="13" y="211" class="tf">hire_date<tspan x="176.8" class="ty">DATE</tspan></text></svg><svg width="118" height="125" x="654.5" y="179.75" id="h2472833127" class="t"><rect height="40" width="118" class="th"></rect><text x="13" y="25" class="tht">salaries</text><rect height="85" width="118" class="t-bg" y="40"></rect><text x="13" y="61" class="tf pk">id<tspan x="105" class="ty">SERIAL</tspan></text><path d="M7,14A2,2 0 0,1 5,12A2,2 0 0,1 7,10A2,2 0 0,1 9,12A2,2 0 0,1 7,14M12.65,10C11.83,7.67 9.61,6 7, 6A6, 6 0 0, 0 1, 12A6, 6 0 0, 0 7, 18C9.61, 18 11.83, 16.33 12.65, 14H17V18H21V14H23V10H12.65Z" class="i pk" transform="translate(42.33333206176758, 48) scale(0.65)"></path><text x="13" y="86" class="tf fk">emp_no<tspan x="105" class="ty">INT</tspan></text><text x="13" y="111" class="tf">salary<tspan x="105" class="ty">INT</tspan></text></svg><svg width="179.8" height="100" x="641" y="347.75" id="h311790747" class="t"><rect height="40" width="179.8" class="th"></rect><text x="13" y="25" class="tht">titles</text><rect height="60" width="179.8" class="t-bg" y="40"></rect><text x="13" y="61" class="tf pk">title_id<tspan x="166.8" class="ty">VARCHAR(10)</tspan></text><path d="M7,14A2,2 0 0,1 5,12A2,2 0 0,1 7,10A2,2 0 0,1 9,12A2,2 0 0,1 7,14M12.65,10C11.83,7.67 9.61,6 7, 6A6, 6 0 0, 0 1, 12A6, 6 0 0, 0 7, 18C9.61, 18 11.83, 16.33 12.65, 14H17V18H21V14H23V10H12.65Z" class="i pk" transform="translate(67.66666870117189, 48) scale(0.65)"></path><text x="13" y="86" class="tf">title<tspan x="166.8" class="ty">VARCHAR(50)</tspan></text></svg></g></g><text class="qdbd-link" x="10" y="20">www.quickdatabasediagrams.com</text></svg>